PathFileType	4	(X/Y/Z)	C:/Users/opensim2020/Desktop/walking_exp_matlab/subject06_walking17_straight_03.trc																																																																																																																																					
DataRate	CameraRate	NumFrames	NumMarkers	Units	OrigDataRate	OrigDataStartFrame	OrigNumFrames																																																																																																																																	
100	100	5	45	mm	100	3318	295																																																																																																																																	
Frame#	Time	LFHD			RFHD			LBHD			RBHD			C7			T10			CLAV			STRN			RBAK			LSHO			LUPA			LELB			LFRM			LWRA			LWRB			LFIN			RSHO			RUPA			RELB			RFRM			RWRA			RWRB			RFIN			LASI			RASI			LPSI			RPSI			LTHI			LKNE			LTIB			LANK			LHEE			LTOE			RTHI			RKNE			RTIB			RANK			RHEE			RTOE			*39			*40			*41			*42			*43			*44		
		X1	Y1	Z1	X2	Y2	Z2	X3	Y3	Z3	X4	Y4	Z4	X5	Y5	Z5	X6	Y6	Z6	X7	Y7	Z7	X8	Y8	Z8	X9	Y9	Z9	X10	Y10	Z10	X11	Y11	Z11	X12	Y12	Z12	X13	Y13	Z13	X14	Y14	Z14	X15	Y15	Z15	X16	Y16	Z16	X17	Y17	Z17	X18	Y18	Z18	X19	Y19	Z19	X20	Y20	Z20	X21	Y21	Z21	X22	Y22	Z22	X23	Y23	Z23	X24	Y24	Z24	X25	Y25	Z25	X26	Y26	Z26	X27	Y27	Z27	X28	Y28	Z28	X29	Y29	Z29	X30	Y30	Z30	X31	Y31	Z31	X32	Y32	Z32	X33	Y33	Z33	X34	Y34	Z34	X35	Y35	Z35	X36	Y36	Z36	X37	Y37	Z37	X38	Y38	Z38	X39	Y39	Z39	X40	Y40	Z40	X41	Y41	Z41	X42	Y42	Z42	X43	Y43	Z43	X44	Y44	Z44	X45	Y45	Z45
																																																																																																																																								
111	1.1	-100.92664	1658.63159	-1051.35229	-117.05557	1638.55859	-921.55908	-229.63469	1600.74365	-1073.35693	-244.70586	1585.1084	-945.76855	-233.34511	1442.73669	-1022.6817	-268.94772	1113.71021	-1022.9422	-124.46193	1364.29785	-1014.2226	-85.84346	1188.65649	-1022.35303	-312.21298	1271.59961	-950.32117	-165.69096	1397.94409	-1178.75244	-127.38179	1197.3075	-1245.63257	-99.85504	1086.74512	-1252.80396	-13.27113	962.12946	-1252.35376	81.34035	891.27368	-1185.72107	38.23932	856.1134	-1229.76697	110.41208	804.28326	-1213.3866	-178.47504	1393.61877	-855.83722	-225.81516	1195.43823	-773.32581	-221.12544	1073.34229	-760.97449	-206.97903	953.78784	-743.44641	-145.08823	814.56281	-771.65692	-201.6154	816.34308	-734.58649	-165.16139	739.97772	-731.25092	-86.99359	948.9292	-1126.01843	-87.93193	964.20819	-904.23846	-243.75279	979.90143	-1100.4209	-240.47652	986.94171	-931.35504	-191.78859	634.73956	-1170.09216	-221.87372	473.07022	-1145.03857	-368.10083	258.9509	-1138.46069	-455.88132	109.99252	-1097.36768	-501.29105	112.68354	-1053.30908	-334.40088	34.91432	-1092.2832	-90.55442	636.90503	-844.01605	-58.4389	517.46832	-872.65875	-52.00367	251.32729	-868.04932	-28.45781	65.73824	-911.84924	-62.78847	40.26259	-958.30432	127.07899	40.03313	-915.31738	-209.17819	1689.47266	-1003.61578	NaN	NaN	NaN	NaN	NaN	NaN	NaN	NaN	NaN	NaN	NaN	NaN	NaN	NaN	NaN
112	1.11	-94.70444	1660.35913	-1049.06946	-110.96107	1639.75171	-919.29553	-223.32547	1602.19458	-1071.37769	-238.52505	1586.14172	-943.89703	-226.69832	1444.01868	-1021.06171	-261.66595	1115.16223	-1021.5285	-117.6717	1365.8512	-1012.80566	-78.54547	1190.2738	-1020.91077	-305.35516	1272.84924	-948.93457	-159.25418	1399.70129	-1177.23621	-121.67442	1198.89856	-1244.41602	-95.15493	1087.98547	-1251.57202	-9.01354	962.95947	-1251.30823	85.39935	891.80664	-1185.0498	42.498	857.07568	-1229.23218	114.41192	804.85144	-1212.57788	-171.66516	1395.05469	-854.40411	-218.56396	1196.77405	-772.09888	-213.43358	1074.6394	-759.87878	-199.02811	955.09949	-742.50525	-136.44006	816.20325	-771.25677	-193.22035	817.53308	-734.23114	-156.64615	741.29333	-730.77625	-79.74554	950.44305	-1124.34802	-80.79747	965.26929	-902.45264	-236.3876	981.43488	-1098.77356	-233.16989	988.52625	-929.70441	-183.69258	635.83746	-1168.99402	-212.75116	473.93982	-1144.10254	-362.59622	262.49673	-1138.15735	-452.57928	114.5355	-1097.61218	-497.62674	118.13904	-1053.51758	-333.22778	35.28834	-1092.30518	-85.43161	637.35535	-843.01288	-54.44709	517.58667	-871.9762	-49.60247	251.39027	-867.85474	-27.9637	66.02132	-911.91418	-62.70071	40.35527	-958.41772	127.54712	39.41026	-916.20959	-203.04848	1690.76013	-1001.21436	NaN	NaN	NaN	NaN	NaN	NaN	NaN	NaN	NaN	NaN	NaN	NaN	NaN	NaN	NaN
113	1.12	-88.57662	1661.90869	-1046.83545	-104.61848	1641.00342	-917.33105	-216.99208	1603.5415	-1069.37402	-232.28174	1587.06628	-941.91754	-219.9931	1445.22192	-1019.50079	-254.31406	1116.40759	-1019.88538	-110.93359	1367.31262	-1011.35059	-71.31194	1191.87622	-1019.46729	-298.16873	1274.04944	-947.47162	-152.74191	1401.11475	-1175.62585	-116.02201	1200.35071	-1243.24683	-90.42882	1089.32349	-1250.50854	-4.57679	963.97992	-1250.84485	89.40412	892.2887	-1184.41455	46.70849	857.92963	-1228.80554	118.45425	805.32239	-1211.97217	-164.84665	1396.4928	-852.93976	-210.97508	1198.03455	-770.55664	-205.81094	1075.92969	-758.74689	-191.07002	956.43091	-741.52643	-128.54102	817.53296	-770.50214	-184.7639	818.90631	-733.21722	-148.03912	742.68829	-730.21875	-72.38579	951.98828	-1122.68518	-73.43898	966.24536	-900.96631	-229.0484	982.87048	-1096.94849	-225.3419	989.81921	-928.0307	-175.43776	636.95911	-1167.9198	-203.51472	474.77463	-1143.35925	-356.91965	266.1145	-1137.81311	-448.8876	119.16045	-1097.78247	-493.47897	123.73093	-1053.63867	-332.54709	35.35119	-1092.16223	-80.90958	637.39026	-842.31805	-50.68512	517.55261	-871.15735	-47.70887	251.34172	-867.88672	-27.39954	66.02537	-912.12921	-62.51442	40.48997	-958.47174	127.90283	38.8155	-916.83722	-196.97119	1691.9668	-999.00458	NaN	NaN	NaN	NaN	NaN	NaN	NaN	NaN	NaN	NaN	NaN	NaN	NaN	NaN	NaN
114	1.13	-82.55251	1663.26135	-1044.79736	-98.58169	1642.07886	-915.2182	-210.8367	1604.74866	-1067.44397	-226.0596	1587.96204	-940.01666	-213.51326	1446.32019	-1017.92432	-247.11229	1117.60864	-1018.23181	-104.16091	1368.72791	-1009.84985	-64.05521	1193.33582	-1017.9422	-290.98157	1275.20178	-945.90497	-146.41953	1402.58789	-1174.06799	-110.42423	1201.71887	-1242.06433	-85.8637	1090.43372	-1249.37378	-0.44946	964.73871	-1249.96265	93.43484	892.63	-1183.88574	50.84173	858.68103	-1228.52002	122.31193	805.68671	-1211.52002	-158.04617	1397.8418	-851.51105	-203.84506	1199.35852	-769.22675	-198.3289	1077.18713	-757.50238	-183.11829	957.73016	-740.50928	-120.04731	819.06256	-769.8526	-176.61627	820.24335	-732.45624	-139.20569	744.1098	-729.70758	-65.22356	953.47107	-1121.07385	-65.8732	967.0863	-899.586	-221.89729	984.35834	-1094.98914	-217.56673	991.01135	-926.32385	-167.14151	638.02112	-1167.06348	-193.90175	475.53653	-1142.87048	-351.14755	269.81461	-1137.17932	-444.96072	123.89051	-1097.86707	-488.98145	129.50288	-1053.54602	-331.68192	35.53556	-1092.00671	-76.21108	637.67633	-840.90662	-46.92149	517.47711	-870.32312	-45.81533	251.34383	-867.4245	-26.84629	66.03386	-912.34125	-62.27934	40.65154	-958.479	128.28194	38.12052	-917.22571	-190.9332	1693.03015	-996.86487	NaN	NaN	NaN	NaN	NaN	NaN	NaN	NaN	NaN	NaN	NaN	NaN	NaN	NaN	NaN
115	1.14	-76.40858	1664.61719	-1042.83716	-92.4646	1643.06873	-913.28522	-204.65289	1605.77832	-1065.58069	-219.85576	1588.8103	-938.13733	-206.87326	1447.26624	-1016.33185	-239.84262	1118.55054	-1016.39526	-97.5129	1370.00146	-1008.36475	-56.89511	1194.67957	-1016.40747	-283.93988	1276.09082	-944.25775	-140.02837	1403.73621	-1172.479	-104.88228	1202.95276	-1240.96045	-81.24816	1091.50232	-1248.37292	3.90359	965.53131	-1249.72266	97.48151	892.88867	-1183.45532	54.90845	859.2749	-1228.35107	126.08271	805.86877	-1211.28638	-151.29579	1399.12476	-850.04126	-196.53317	1200.66138	-767.8125	-190.85371	1078.35413	-756.23926	-175.18872	958.92206	-739.44446	-111.37545	820.75641	-769.05023	-167.76434	821.39868	-731.86713	-130.35141	745.46014	-729.03003	-58.21453	954.8916	-1119.52832	-58.45837	967.84644	-898.32837	-214.8596	985.47003	-1093.20349	-209.85478	992.07379	-924.58044	-158.70738	639.00116	-1166.3772	-184.09146	476.17175	-1142.67493	-344.88953	273.51511	-1136.86487	-440.67889	128.67041	-1097.82947	-484.01904	135.30762	-1053.30066	-330.4155	35.7378	-1091.86523	-71.48605	637.8645	-839.75891	-43.22361	517.40173	-869.0415	-44.433	251.19551	-867.07135	-26.47128	66.01328	-912.43848	-62.08769	40.74884	-958.53528	128.65491	37.58797	-917.38275	-184.90491	1694.06079	-994.83966	NaN	NaN	NaN	NaN	NaN	NaN	NaN	NaN	NaN	NaN	NaN	NaN	NaN	NaN	NaN
